<svg width="148" height="33" viewBox="0 0 148 33" fill="none" xmlns="http://www.w3.org/2000/svg">
<path d="M52.5406 8.72473H40.6399V12.6698H44.5646V23.8474H48.5399V12.6698H52.5406V8.72473Z" fill="#2F3F4A"/>
<path d="M63.8591 19.3713L60.8459 12.9732L58.8455 8.72473H57.0478L54.8449 13.479L50.0086 23.8474H54.3891L55.1487 22.2289H60.8206L61.5802 23.8474H65.9354H65.9607L63.8591 19.3713ZM57.9593 16.1849L58.9468 18.2839H56.9718L57.9593 16.1849Z" fill="#2F3F4A"/>
<path d="M71.4046 8.75H67.4292V23.8474H76.8485V19.8518H71.4046V8.75Z" fill="#2F3F4A"/>
<path d="M78.2919 8.75V23.8474H87.6859V23.8221V20.6104V19.8771H82.2673V18.2586H87.6859V14.3135H82.2673V12.7203H87.6859V12.0375V8.75H81.457H78.2919Z" fill="#2F3F4A"/>
<path d="M97.9155 15.8814L90.7751 8.75H89.1546V23.8474H93.1299V16.6907L100.27 23.8474H101.891V8.75H97.9155V15.8814Z" fill="#2F3F4A"/>
<path d="M103.359 12.6698H107.284V23.8474H111.26V12.6698H115.26V8.72473H103.359V12.6698Z" fill="#2F3F4A"/>
<path d="M120.704 8.75H116.729V23.8474H120.704V8.75Z" fill="#2F3F4A"/>
<path d="M122.173 8.75V23.8474H126.148V18.2586H131.643V14.3135H126.148V12.7203H131.643V12.0123V8.75H125.389H122.173Z" fill="#2F3F4A"/>
<path d="M143.417 8.75L140.505 13.7825L137.593 8.75H133.035L138.555 18.2839V23.8221H142.48V18.2839L148 8.75H143.417Z" fill="#2F3F4A"/>
<path d="M10.9892 22.8863L4.76031 11.5063L0 16.2859L4.76031 21.0655L10.9892 22.8863Z" fill="#35499C"/>
<path d="M11.521 4.77958L9.69794 10.9753L21.0923 4.77958L16.3067 0L11.521 4.77958Z" fill="#EB2046"/>
<path d="M11.521 4.77966H4.76031V11.5065L7.87477 17.1965L11.521 4.77966Z" fill="#C53F97"/>
<path d="M4.76031 21.0656V27.8177H11.521L17.2181 24.7071L4.76031 21.0656Z" fill="#098BC5"/>
<path d="M11.521 27.8176L16.3066 32.5719L21.0923 27.8176L22.9153 21.5966L11.521 27.8176Z" fill="#6DC9C6"/>
<path d="M21.0923 27.8177H27.8529V21.0656L24.7385 15.3756L21.0923 27.8177Z" fill="#B8D435"/>
<path d="M27.8529 11.5065L21.624 9.68567L27.8529 21.0656L32.6132 16.286L27.8529 11.5065Z" fill="#F4EA14"/>
<path d="M21.0924 4.77966L15.3952 7.86489L27.853 11.5065V4.77966H21.0924Z" fill="#FAAD20"/>
</svg>
